<?xml version="1.0" encoding="UTF-8"?>
<svg version="1.1" xmlns="http://www.w3.org/2000/svg" width="1024" height="1024">
<path d="M0 0 C7.45094999 0.02886101 14.90190464 0.05642781 22.35285963 0.08395992 C35.62561637 0.13303586 48.8983694 0.18304758 62.1711202 0.23370282 C75.01584485 0.28272238 87.86057117 0.33126693 100.70529989 0.37921063 C101.90561763 0.38369113 101.90561763 0.38369113 103.13018422 0.38826214 C107.14713885 0.40325364 111.16409351 0.41823621 115.18104819 0.43321435 C148.17318684 0.55624454 181.1653195 0.68081629 214.15744832 0.80645673 C214.20879813 58.73960168 214.25656067 116.67274893 214.28447774 174.60591046 C214.28489191 175.46319811 214.28530608 176.32048576 214.28573281 177.20375183 C214.29471131 195.83445806 214.30302189 214.46516453 214.31064431 233.09587137 C214.31438635 242.23222865 214.31827601 251.36858587 214.32224324 260.50494306 C214.32263552 261.41412542 214.3230278 262.32330779 214.32343196 263.26004114 C214.33621836 292.7347443 214.35875405 322.20943021 214.38633999 351.68412292 C214.41463422 381.97058312 214.43310383 412.25703377 214.43919329 442.54350695 C214.44005777 446.82024445 214.44103468 451.09698192 214.44208005 455.37371938 C214.44228232 456.21545121 214.44248459 457.05718305 214.44269299 457.92442191 C214.44623956 471.47962536 214.46015759 485.03479932 214.47794442 498.58999073 C214.49560073 512.21411563 214.50235362 525.83821125 214.49795245 539.46234719 C214.49566895 547.55890308 214.50176974 555.65535193 214.51984095 563.75188852 C214.53240862 569.79498602 214.52933575 575.83796842 214.52014501 581.88107645 C214.51887446 584.32806045 214.52270594 586.7750534 214.53209787 589.22201971 C214.5441098 592.54420718 214.5376642 595.86586841 214.52659181 599.18804757 C214.53447285 600.14145082 214.54235389 601.09485407 214.55047375 602.07714833 C214.48017198 611.39085754 211.44870099 618.66787409 207.15744832 626.80645673 C206.49744832 626.80645673 205.83744832 626.80645673 205.15744832 626.80645673 C204.82744832 628.12645673 204.49744832 629.44645673 204.15744832 630.80645673 C203.49744832 630.80645673 202.83744832 630.80645673 202.15744832 630.80645673 C201.88932332 631.44583173 201.62119832 632.08520673 201.34494832 632.74395673 C200.15744832 634.80645673 200.15744832 634.80645673 197.15744832 635.80645673 C196.82744832 636.46645673 196.49744832 637.12645673 196.15744832 637.80645673 C195.82744832 638.46645673 195.49744832 639.12645673 195.15744832 639.80645673 C194.16744832 640.13645673 193.17744832 640.46645673 192.15744832 640.80645673 C191.82744832 641.46645673 191.49744832 642.12645673 191.15744832 642.80645673 C190.82744832 643.46645673 190.49744832 644.12645673 190.15744832 644.80645673 C189.16744832 645.13645673 188.17744832 645.46645673 187.15744832 645.80645673 C186.82744832 646.79645673 186.49744832 647.78645673 186.15744832 648.80645673 C185.49744832 648.80645673 184.83744832 648.80645673 184.15744832 648.80645673 C184.15744832 649.46645673 184.15744832 650.12645673 184.15744832 650.80645673 C183.49744832 650.80645673 182.83744832 650.80645673 182.15744832 650.80645673 C181.82744832 651.79645673 181.49744832 652.78645673 181.15744832 653.80645673 C180.49744832 653.80645673 179.83744832 653.80645673 179.15744832 653.80645673 C179.15744832 654.46645673 179.15744832 655.12645673 179.15744832 655.80645673 C178.49744832 655.80645673 177.83744832 655.80645673 177.15744832 655.80645673 C176.82744832 656.79645673 176.49744832 657.78645673 176.15744832 658.80645673 C175.49744832 658.80645673 174.83744832 658.80645673 174.15744832 658.80645673 C174.15744832 659.46645673 174.15744832 660.12645673 174.15744832 660.80645673 C173.49744832 660.80645673 172.83744832 660.80645673 172.15744832 660.80645673 C171.82744832 661.79645673 171.49744832 662.78645673 171.15744832 663.80645673 C170.49744832 663.80645673 169.83744832 663.80645673 169.15744832 663.80645673 C169.15744832 664.46645673 169.15744832 665.12645673 169.15744832 665.80645673 C168.49744832 665.80645673 167.83744832 665.80645673 167.15744832 665.80645673 C166.82744832 666.79645673 166.49744832 667.78645673 166.15744832 668.80645673 C165.49744832 668.80645673 164.83744832 668.80645673 164.15744832 668.80645673 C163.82744832 669.79645673 163.49744832 670.78645673 163.15744832 671.80645673 C162.49744832 671.80645673 161.83744832 671.80645673 161.15744832 671.80645673 C161.15744832 672.46645673 161.15744832 673.12645673 161.15744832 673.80645673 C160.49744832 673.80645673 159.83744832 673.80645673 159.15744832 673.80645673 C158.82744832 674.79645673 158.49744832 675.78645673 158.15744832 676.80645673 C156.48557332 678.45489423 156.48557332 678.45489423 154.40744832 680.18145673 C151.16860396 682.9295671 148.12309335 685.76065913 145.15744832 688.80645673 C143.99865286 689.96690797 142.83962393 691.12712725 141.67926493 692.28601508 C139.95216097 694.0115586 138.22717017 695.73919832 136.50240854 697.46708314 C135.81442455 698.15630052 135.12644057 698.8455179 134.41760859 699.55562065 C133.67480212 700.29979136 132.93199565 701.04396207 132.16667989 701.81068341 C130.50533032 703.47496656 128.84397333 705.1392423 127.18261007 706.80351178 C126.29739234 707.69028041 125.41217462 708.57704904 124.50013211 709.49068944 C104.77648189 729.24856216 85.04777694 749.00138009 65.31544923 768.75058648 C62.4026366 771.66590021 59.48986779 774.58125771 56.57712606 777.49664227 C55.70739943 778.36715583 55.70739943 778.36715583 54.82010257 779.25525553 C45.40695956 788.67712363 35.99735253 798.10251563 26.58902181 807.52918883 C16.93093919 817.20594386 7.26908978 826.87892574 -2.39630011 836.54838215 C-8.35980823 842.51463903 -14.32032757 848.48385033 -20.27709717 854.45683516 C-24.3534027 858.54367477 -28.43334545 862.62685929 -32.5162242 866.707132 C-34.87445485 869.06407613 -37.23043245 871.42316425 -39.58322665 873.78554265 C-42.12850455 876.3406849 -44.67977696 878.88968226 -47.23273417 881.43714826 C-48.35698213 882.57013473 -48.35698213 882.57013473 -49.50394216 883.72600983 C-50.1841029 884.40218847 -50.86426364 885.07836711 -51.56503531 885.77503602 C-52.44837618 886.65951605 -52.44837618 886.65951605 -53.34956232 887.56186436 C-54.84255168 888.80645673 -54.84255168 888.80645673 -56.84255168 888.80645673 C-57.17255168 889.79645673 -57.50255168 890.78645673 -57.84255168 891.80645673 C-58.50255168 891.80645673 -59.16255168 891.80645673 -59.84255168 891.80645673 C-60.17255168 892.79645673 -60.50255168 893.78645673 -60.84255168 894.80645673 C-61.50255168 894.80645673 -62.16255168 894.80645673 -62.84255168 894.80645673 C-63.11067668 895.44583173 -63.37880168 896.08520673 -63.65505168 896.74395673 C-64.84255168 898.80645673 -64.84255168 898.80645673 -67.84255168 899.80645673 C-68.52689126 901.13080621 -69.19165121 902.46535614 -69.84255168 903.80645673 C-71.53395793 905.43926923 -71.53395793 905.43926923 -73.40505168 906.93145673 C-76.05280833 909.01549307 -76.05280833 909.01549307 -77.84255168 911.80645673 C-78.50255168 911.80645673 -79.16255168 911.80645673 -79.84255168 911.80645673 C-79.84255168 912.46645673 -79.84255168 913.12645673 -79.84255168 913.80645673 C-81.49257996 915.16032608 -83.15999038 916.49323815 -84.84255168 917.80645673 C-85.17255168 918.46645673 -85.50255168 919.12645673 -85.84255168 919.80645673 C-86.50255168 919.80645673 -87.16255168 919.80645673 -87.84255168 919.80645673 C-87.84255168 920.46645673 -87.84255168 921.12645673 -87.84255168 921.80645673 C-89.16188761 923.09136884 -89.16188761 923.09136884 -91.07692668 924.64630048 C-94.81775686 927.82370307 -98.26886377 931.21543531 -101.67067668 934.74786298 C-102.72914189 935.83718059 -103.78773792 936.92637112 -104.84645793 938.0154411 C-106.47070374 939.6888398 -108.08979523 941.36605377 -109.69557902 943.05718915 C-118.04119891 951.82532359 -127.18704224 960.37908217 -139.97536132 960.94512193 C-141.22529466 960.95157448 -142.47522801 960.95802703 -143.76303813 960.96467511 C-144.46478805 960.96961344 -145.16653797 960.97455177 -145.88955304 960.97963975 C-148.26035822 960.99506322 -150.63113566 961.00340685 -153.00197551 961.01177899 C-154.72221134 961.02138047 -156.44244496 961.03138632 -158.1626763 961.04176061 C-162.93809795 961.06915232 -167.71352946 961.09007614 -172.48898837 961.10975449 C-176.64447521 961.12755239 -180.79994254 961.14871407 -184.95541391 961.16977881 C-197.71939913 961.2342509 -210.48341761 961.28805517 -223.24746272 961.33908765 C-229.40387583 961.36371866 -235.56028219 961.3897279 -241.71668771 961.41618196 C-329.08971547 961.79086775 -416.46295676 961.90320737 -529.55843499 961.92857013 C-539.07302343 961.92992449 -548.5876111 961.93182553 -558.10219905 961.93522946 C-559.51625977 961.93573458 -559.51625977 961.93573458 -560.95888737 961.9362499 C-562.85878038 961.93693091 -564.75867339 961.93761201 -566.6585664 961.93829321 C-583.99743755 961.94443593 -601.33630292 961.94652464 -618.6751748 961.94211839 C-620.4017638 961.94168759 -622.12835281 961.9412611 -623.85494181 961.94083898 C-624.70214174 961.9406309 -625.54934167 961.94042282 -626.42221432 961.94020843 C-632.30944933 961.93900358 -638.19668063 961.94025264 -644.0839152 961.94259755 C-651.17345457 961.94538352 -658.26298295 961.94467215 -665.3525211 961.93941488 C-668.93437064 961.93684444 -672.51620184 961.93578069 -676.09805116 961.93913011 C-713.34914706 961.97092493 -713.34914706 961.97092493 -719.84255168 959.80645673 C-720.98686676 957.51782655 -720.96845067 956.2552877 -720.97020218 953.71182613 C-720.97321815 952.84748909 -720.97623411 951.98315205 -720.97934148 951.09262298 C-720.977572 950.13549122 -720.97580253 949.17835946 -720.97397944 948.19222371 C-720.97603208 947.17711022 -720.97808471 946.16199673 -720.98019954 945.11612223 C-720.9859064 941.674886 -720.98440777 938.23368933 -720.98299357 934.79244916 C-720.98557512 932.31614507 -720.98858768 929.8398414 -720.99199697 927.36353831 C-720.99924425 921.24589273 -721.00177082 915.12826066 -721.00232603 909.01061211 C-721.00323818 901.6863349 -721.0099014 894.36206581 -721.01667285 887.03779208 C-721.03275254 869.3302515 -721.03863883 851.62271177 -721.0434216 833.91516521 C-721.04575607 825.53939715 -721.0493586 817.16362979 -721.05311698 808.78786227 C-721.06595562 780.12216907 -721.07667344 751.45647625 -721.08011958 722.79078023 C-721.08034121 720.99036307 -721.080563 719.18994591 -721.08078493 717.38952876 C-721.08100557 715.58472373 -721.08122605 713.7799187 -721.08144638 711.97511367 C-721.08188893 708.35427881 -721.08233605 704.73344394 -721.08278605 701.11260907 C-721.08289544 700.21484865 -721.08300483 699.31708823 -721.08311754 698.39212295 C-721.08674705 669.29126564 -721.10266149 640.19043325 -721.12597642 611.08958548 C-721.15057493 580.33039462 -721.16429248 549.571218 -721.1654875 518.81201701 C-721.16565895 515.43490291 -721.16587438 512.05778881 -721.16612193 508.68067471 C-721.1661777 507.8491202 -721.16623347 507.01756569 -721.16629092 506.16081256 C-721.16744152 492.77926291 -721.17846447 479.39773883 -721.19300898 466.01619782 C-721.20737886 452.56253366 -721.21060825 439.10890227 -721.20256901 425.65523255 C-721.19811466 417.66372333 -721.20196547 409.67231991 -721.21780751 401.6808246 C-721.22871459 395.71067253 -721.22391009 389.74064115 -721.21303564 383.77048453 C-721.21107406 381.35715558 -721.21417826 378.94381603 -721.22288 376.53050196 C-721.28082482 359.37292599 -720.58220582 346.41593793 -710.84255168 331.80645673 C-710.18255168 331.80645673 -709.52255168 331.80645673 -708.84255168 331.80645673 C-708.84255168 331.14645673 -708.84255168 330.48645673 -708.84255168 329.80645673 C-708.18255168 329.80645673 -707.52255168 329.80645673 -706.84255168 329.80645673 C-706.51255168 328.81645673 -706.18255168 327.82645673 -705.84255168 326.80645673 C-705.18255168 326.80645673 -704.52255168 326.80645673 -703.84255168 326.80645673 C-703.57442668 326.16708173 -703.30630168 325.52770673 -703.03005168 324.86895673 C-701.84255168 322.80645673 -701.84255168 322.80645673 -698.84255168 321.80645673 C-698.57442668 321.24958173 -698.30630168 320.69270673 -698.03005168 320.11895673 C-696.30970868 316.7688151 -693.7567988 314.18220166 -690.84255168 311.80645673 C-690.18255168 311.80645673 -689.52255168 311.80645673 -688.84255168 311.80645673 C-688.57442668 311.16708173 -688.30630168 310.52770673 -688.03005168 309.86895673 C-686.84255168 307.80645673 -686.84255168 307.80645673 -683.84255168 306.80645673 C-683.51255168 306.14645673 -683.18255168 305.48645673 -682.84255168 304.80645673 C-681.84255168 302.80645673 -681.84255168 302.80645673 -678.84255168 301.80645673 C-678.51255168 300.81645673 -678.18255168 299.82645673 -677.84255168 298.80645673 C-677.18255168 298.80645673 -676.52255168 298.80645673 -675.84255168 298.80645673 C-675.57442668 298.16708173 -675.30630168 297.52770673 -675.03005168 296.86895673 C-673.84255168 294.80645673 -673.84255168 294.80645673 -670.84255168 293.80645673 C-670.51255168 293.14645673 -670.18255168 292.48645673 -669.84255168 291.80645673 C-668.84255168 289.80645673 -668.84255168 289.80645673 -665.84255168 288.80645673 C-665.44036418 287.97114423 -665.44036418 287.97114423 -665.03005168 287.11895673 C-663.30970868 283.7688151 -660.7567988 281.18220166 -657.84255168 278.80645673 C-657.18255168 278.80645673 -656.52255168 278.80645673 -655.84255168 278.80645673 C-655.51255168 277.81645673 -655.18255168 276.82645673 -654.84255168 275.80645673 C-654.18255168 275.80645673 -653.52255168 275.80645673 -652.84255168 275.80645673 C-652.84255168 275.14645673 -652.84255168 274.48645673 -652.84255168 273.80645673 C-652.18255168 273.80645673 -651.52255168 273.80645673 -650.84255168 273.80645673 C-650.51255168 272.81645673 -650.18255168 271.82645673 -649.84255168 270.80645673 C-649.18255168 270.80645673 -648.52255168 270.80645673 -647.84255168 270.80645673 C-647.53427565 270.01103782 -647.53427565 270.01103782 -647.21977183 269.19954984 C-645.26744634 265.80713892 -642.56431809 263.25333941 -639.80702922 260.51696698 C-639.18194799 259.88876577 -638.55686676 259.26056456 -637.91284367 258.61332695 C-635.81407642 256.50657322 -633.70822157 254.40705111 -631.6023173 252.30743329 C-630.09748164 250.79988812 -628.59307192 249.29191769 -627.08905741 247.78355329 C-623.0008797 243.68624617 -618.90638667 239.5953047 -614.8104758 235.50572984 C-610.53094593 231.23125522 -606.25628848 226.95191256 -601.98085734 222.67333905 C-594.80179583 215.4906373 -587.61852345 208.31216698 -580.43288371 201.13604657 C-572.1141613 192.82821707 -563.80267976 184.51319572 -555.49490735 176.1944174 C-548.37075637 169.06120507 -541.24273347 161.93187946 -534.11143014 154.80581753 C-529.8481605 150.54567288 -525.58627018 146.28417198 -521.32785746 142.01917188 C-517.32693655 138.01249459 -513.32119504 134.01070145 -509.31160113 130.01270406 C-507.83681409 128.54057242 -506.36374649 127.06671603 -504.89248416 125.59106175 C-502.89224849 123.58540406 -500.8860253 121.58594073 -498.87807414 119.5880119 C-497.99588639 118.69913199 -497.99588639 118.69913199 -497.09587666 117.7922949 C-493.07085206 113.80645673 -493.07085206 113.80645673 -490.84255168 113.80645673 C-490.57442668 113.16708173 -490.30630168 112.52770673 -490.03005168 111.86895673 C-488.84255168 109.80645673 -488.84255168 109.80645673 -485.84255168 108.80645673 C-485.57442668 108.24958173 -485.30630168 107.69270673 -485.03005168 107.11895673 C-483.30970868 103.7688151 -480.7567988 101.18220166 -477.84255168 98.80645673 C-477.18255168 98.80645673 -476.52255168 98.80645673 -475.84255168 98.80645673 C-475.51255168 97.81645673 -475.18255168 96.82645673 -474.84255168 95.80645673 C-474.18255168 95.80645673 -473.52255168 95.80645673 -472.84255168 95.80645673 C-472.84255168 95.14645673 -472.84255168 94.48645673 -472.84255168 93.80645673 C-471.46755168 92.18145673 -471.46755168 92.18145673 -469.84255168 90.80645673 C-469.18255168 90.80645673 -468.52255168 90.80645673 -467.84255168 90.80645673 C-467.51255168 89.81645673 -467.18255168 88.82645673 -466.84255168 87.80645673 C-466.18255168 87.80645673 -465.52255168 87.80645673 -464.84255168 87.80645673 C-464.84255168 87.14645673 -464.84255168 86.48645673 -464.84255168 85.80645673 C-463.46755168 84.18145673 -463.46755168 84.18145673 -461.84255168 82.80645673 C-461.18255168 82.80645673 -460.52255168 82.80645673 -459.84255168 82.80645673 C-459.84255168 82.14645673 -459.84255168 81.48645673 -459.84255168 80.80645673 C-458.26833293 79.25567548 -458.26833293 79.25567548 -456.15505168 77.49395673 C-452.89716854 74.72360892 -449.82825013 71.87284973 -446.84255168 68.80645673 C-445.17693699 67.13873874 -443.51012076 65.47222049 -441.84255168 63.80645673 C-440.04715123 62.00639732 -438.25208914 60.20600038 -436.45729777 58.40533368 C-431.25911847 53.19087323 -426.05844234 47.97891071 -420.85630557 42.76839845 C-417.71563323 39.6224875 -414.57591193 36.47563888 -411.4382548 33.3267204 C-408.39373483 30.27134801 -405.3467895 27.2184139 -402.29813716 24.16716496 C-401.13863821 23.00581908 -399.98001944 21.84359373 -398.82229945 20.68047444 C-397.20685323 19.05778451 -395.58832011 17.43823553 -393.96901652 15.81939618 C-393.04922007 14.89737912 -392.12942363 13.97536206 -391.18175456 13.02540509 C-386.73416293 8.80645673 -386.73416293 8.80645673 -382.84255168 8.80645673 C-382.84255168 8.14645673 -382.84255168 7.48645673 -382.84255168 6.80645673 C-380.9930312 5.9834353 -379.13766603 5.17354307 -377.28005168 4.36895673 C-376.24751261 3.91649579 -375.21497355 3.46403485 -374.15114543 2.99786298 C-367.56829998 0.62741686 -360.92176741 0.65573636 -354.01398417 0.64823834 C-352.55344079 0.64083138 -352.55344079 0.64083138 -351.06339148 0.63327478 C-347.8070813 0.61794502 -344.55079081 0.60954977 -341.29445597 0.60113446 C-338.95406118 0.59154879 -336.61366808 0.5815383 -334.27327677 0.57113568 C-327.90430863 0.54406628 -321.53533314 0.52304464 -315.16633913 0.5031337 C-309.12777638 0.48338061 -303.08923229 0.45924691 -297.05068547 0.43521147 C-285.02404484 0.38750283 -272.9973923 0.34429999 -260.97072551 0.30377118 C-249.4349067 0.26488959 -237.89910139 0.22347443 -226.36330363 0.17877118 C-225.66014817 0.17604691 -224.95699271 0.17332264 -224.23252951 0.17051581 C-221.40159461 0.15954191 -218.57065973 0.14856282 -215.73972488 0.13757367 C-203.92590117 0.0917907 -192.11206942 0.04813942 -180.29823658 0.00478403 C-177.65527908 -0.00491894 -175.01232196 -0.01471066 -172.36936495 -0.02454575 C-164.76488077 -0.05281267 -157.16039394 -0.07990554 -149.55590007 -0.10543521 C-147.29526159 -0.11315655 -145.03462411 -0.12118289 -142.77398822 -0.12962611 C-95.18259481 -0.30614296 -47.59113334 -0.18462419 0 0 Z M-244.39914891 101.82596986 C-250.61478894 101.86325767 -256.82932968 101.92242146 -263.04426822 102.02394049 C-264.79487569 102.05056992 -266.54558913 102.07112839 -268.29634604 102.08476345 C-282.57351315 102.2080949 -292.0893239 105.23782961 -302.46755168 115.36895673 C-303.25130168 116.17333173 -304.03505168 116.97770673 -304.84255168 117.80645673 C-305.79130168 118.56958173 -306.74005168 119.33270673 -307.71755168 120.11895673 C-310.96248876 122.75179974 -313.56323446 125.8315535 -316.22927043 129.03692548 C-317.84255168 130.80645673 -317.84255168 130.80645673 -320.84255168 132.80645673 C-320.84255168 133.46645673 -320.84255168 134.12645673 -320.84255168 134.80645673 C-321.83255168 135.13645673 -322.82255168 135.46645673 -323.84255168 135.80645673 C-323.84255168 136.46645673 -323.84255168 137.12645673 -323.84255168 137.80645673 C-324.48192668 138.07458173 -325.12130168 138.34270673 -325.78005168 138.61895673 C-328.17386854 139.69313425 -328.17386854 139.69313425 -328.84255168 142.80645673 C-330.17588501 143.47312339 -331.50921834 144.13979006 -332.84255168 144.80645673 C-333.17255168 145.79645673 -333.50255168 146.78645673 -333.84255168 147.80645673 C-334.39910441 148.07756268 -334.95565715 148.34866864 -335.52907511 148.62798993 C-338.89087499 150.34046439 -341.25183038 152.99119373 -343.85817668 155.66192548 C-344.43283671 156.24178708 -345.00749675 156.82164868 -345.59957072 157.41908185 C-347.43539187 159.27267533 -349.26440583 161.13279533 -351.09255168 162.99395673 C-353.49017026 165.4283486 -355.89106501 167.85944085 -358.29567668 170.28692548 C-359.15947192 171.15958051 -359.15947192 171.15958051 -360.04071757 172.04986493 C-363.66694822 175.69060588 -367.39347977 179.1483166 -371.31276652 182.47466962 C-373.23780776 184.15055534 -374.90060682 185.96955587 -376.53005168 187.93145673 C-379.83724008 191.81609073 -383.14640455 195.51202865 -387.21755168 198.61895673 C-390.21747163 201.11889002 -392.61394893 203.89234313 -395.14723918 206.85333173 C-397.26566108 209.29390996 -399.527712 211.55253389 -401.84255168 213.80645673 C-402.99403081 214.95820036 -404.14541234 216.11004176 -405.29625651 217.26241986 C-407.8230519 219.78552497 -410.36151714 222.29685035 -412.89780375 224.81040875 C-416.13563931 228.02157256 -419.36826763 231.23795632 -422.60060832 234.45465009 C-424.31075949 236.15466751 -426.02269013 237.85289664 -427.73635051 239.54937665 C-430.21001184 241.99891394 -432.67727698 244.45473473 -435.14333293 246.91192548 C-436.3009891 248.0540978 -436.3009891 248.0540978 -437.48203227 249.2193443 C-438.18664088 249.92380185 -438.89124949 250.6282594 -439.61720988 251.35406415 C-440.24166499 251.97407804 -440.8661201 252.59409192 -441.50949809 253.23289411 C-443.05801431 254.71707437 -443.05801431 254.71707437 -442.84255168 256.80645673 C-443.83255168 257.13645673 -444.82255168 257.46645673 -445.84255168 257.80645673 C-445.84255168 258.46645673 -445.84255168 259.12645673 -445.84255168 259.80645673 C-446.50255168 259.80645673 -447.16255168 259.80645673 -447.84255168 259.80645673 C-447.84255168 260.46645673 -447.84255168 261.12645673 -447.84255168 261.80645673 C-448.83255168 262.13645673 -449.82255168 262.46645673 -450.84255168 262.80645673 C-453.5510409 265.18150891 -453.5510409 265.18150891 -455.84255168 267.80645673 C-455.84255168 268.46645673 -455.84255168 269.12645673 -455.84255168 269.80645673 C-456.50255168 269.80645673 -457.16255168 269.80645673 -457.84255168 269.80645673 C-459.50921834 271.13979006 -459.50921834 271.13979006 -460.84255168 272.80645673 C-460.84255168 273.46645673 -460.84255168 274.12645673 -460.84255168 274.80645673 C-461.50255168 274.80645673 -462.16255168 274.80645673 -462.84255168 274.80645673 C-473.48103613 285.11591589 -479.81113274 295.58287748 -480.15428874 310.52232282 C-480.17475237 311.27937957 -480.195216 312.03643632 -480.21629974 312.81643419 C-480.28166178 315.31129907 -480.33973672 317.80626097 -480.3967509 320.30132977 C-480.41771319 321.16634087 -480.43867548 322.03135196 -480.460273 322.92257552 C-480.88973537 340.77121282 -480.99164128 358.61401448 -480.97687718 376.46706144 C-480.97426321 380.65048078 -480.97671435 384.83389846 -480.97826335 389.01731793 C-480.98005544 396.00587289 -480.97775392 402.99441709 -480.97292277 409.9829704 C-480.96744067 418.0046884 -480.96928316 426.02638112 -480.97474918 434.04809855 C-480.97931238 441.03170082 -480.97991659 448.01529557 -480.97731051 454.99889885 C-480.975771 459.12926774 -480.97548957 463.25962479 -480.978847 467.38999288 C-480.98177471 471.25725268 -480.97966197 475.12448019 -480.97395274 478.99173657 C-480.97265298 480.39197089 -480.97297043 481.79220803 -480.9752154 483.19244115 C-480.99060862 493.7838859 -480.43168807 504.20200163 -479.84255168 514.80645673 C-327.38255168 514.80645673 -174.92255168 514.80645673 -17.84255168 514.80645673 C-17.84255168 572.55645673 -17.84255168 630.30645673 -17.84255168 689.80645673 C-16.19255168 690.46645673 -14.54255168 691.12645673 -12.84255168 691.80645673 C-12.84255168 691.14645673 -12.84255168 690.48645673 -12.84255168 689.80645673 C-12.18255168 689.80645673 -11.52255168 689.80645673 -10.84255168 689.80645673 C-9.23774889 688.25869674 -9.23774889 688.25869674 -7.59255168 686.24395673 C-6.97122355 685.51434735 -6.34989543 684.78473798 -5.70973918 684.03301923 C-5.0935673 683.2982536 -4.47739543 682.56348798 -3.84255168 681.80645673 C0.31621154 676.88424906 4.60387248 672.26934483 9.24729207 667.79083173 C9.98076864 667.07411298 10.7142452 666.35739423 11.46994832 665.61895673 C12.51602254 664.6076872 12.51602254 664.6076872 13.58322957 663.57598798 C15.37900529 661.9521477 15.37900529 661.9521477 15.15744832 659.80645673 C15.81744832 659.80645673 16.47744832 659.80645673 17.15744832 659.80645673 C18.7942034 658.18846171 18.7942034 658.18846171 20.46994832 656.11895673 C24.0858361 651.8667326 27.93439464 647.97515247 31.96994832 644.11895673 C34.38651494 642.09483524 34.38651494 642.09483524 34.15744832 639.80645673 C35.14744832 639.47645673 36.13744832 639.14645673 37.15744832 638.80645673 C38.62932434 637.35211063 38.62932434 637.35211063 40.08713582 635.49786298 C43.19872407 631.82952444 46.4921324 628.39691378 49.91526082 625.02130048 C50.42997945 624.51225171 50.94469808 624.00320294 51.47501424 623.47872846 C53.61612419 621.36454215 55.76121327 619.25448575 57.91086629 617.14898602 C69.55092629 605.7320301 78.56794626 595.49474517 78.79952589 578.22811 C78.80184023 576.05169462 78.7796316 573.87629712 78.75681356 571.70001142 C78.75868158 570.11517882 78.76272673 568.53034754 78.76876119 566.94552533 C78.77866509 562.67698307 78.75768522 558.40911388 78.73028115 554.14066903 C78.70630351 549.65747334 78.70939498 545.17428763 78.70897725 540.69103925 C78.70436229 533.16950123 78.68080516 525.64821787 78.64450887 518.12676923 C78.60272222 509.44475233 78.58518972 500.76296412 78.58188912 492.08085243 C78.57828387 482.81071685 78.55940916 473.54066281 78.53476885 464.27056138 C78.52855638 461.60945843 78.52491004 458.94836169 78.52173475 456.28725354 C78.5158133 452.10103645 78.49944255 447.91498085 78.47513059 443.72883145 C78.46772223 442.19703976 78.46362071 440.66522778 78.46315053 439.13341825 C78.46188231 437.03474497 78.44825646 434.93648979 78.43160299 432.83788983 C78.42695248 431.66620629 78.42230197 430.49452275 78.41751054 429.28733365 C78.19615056 425.000301 78.19615056 425.000301 76.15744832 417.80645673 C-75.31255168 417.47645673 -226.78255168 417.14645673 -382.84255168 416.80645673 C-383.17255168 396.34645673 -383.50255168 375.88645673 -383.84255168 354.80645673 C-232.04255168 354.80645673 -80.24255168 354.80645673 76.15744832 354.80645673 C76.15744832 271.64645673 76.15744832 188.48645673 76.15744832 102.80645673 C68.71944627 101.95793346 68.71944627 101.95793346 61.35718683 101.68061559 C60.2922829 101.67800784 59.22737898 101.67540009 58.13020524 101.67271332 C56.41488403 101.6760594 56.41488403 101.6760594 54.66490987 101.67947309 C53.42911968 101.67791309 52.1933295 101.6763531 50.92009112 101.67474584 C47.50980673 101.67145974 44.09957783 101.67262592 40.68929687 101.67573206 C37.00149883 101.67800248 33.3137055 101.67449785 29.62590841 101.67175214 C22.40002018 101.66730867 15.17414236 101.66826587 7.94825373 101.67116478 C2.05447261 101.67343015 -3.8393056 101.67372641 -9.73308703 101.67264096 C-10.57455252 101.67248773 -11.41601801 101.6723345 -12.28298246 101.67217662 C-13.99324394 101.67185684 -15.70350542 101.67153263 -17.4137669 101.67120403 C-33.45871596 101.66835191 -49.50365932 101.67162907 -65.54860745 101.67700439 C-79.22463537 101.68144533 -92.90065478 101.68071855 -106.57668254 101.67608563 C-122.51602902 101.67068838 -138.45537045 101.66865468 -154.39471772 101.6716979 C-156.1085105 101.67201637 -157.82230328 101.67233074 -159.53609607 101.67264096 C-160.80026781 101.67287238 -160.80026781 101.67287238 -162.08997838 101.67310846 C-167.93886433 101.67396034 -173.78774696 101.6725123 -179.63663241 101.67016141 C-201.22462653 101.66248146 -222.81146374 101.70752988 -244.39914891 101.82596986 Z M-545.84255168 355.80645673 C-548.83962985 358.75419091 -551.83015662 361.7083688 -554.81471965 364.66876142 C-555.83148567 365.67545401 -556.85003729 366.68034639 -557.87038371 367.68340985 C-559.33456386 369.12340044 -560.79225372 370.56968929 -562.24880168 372.01739423 C-563.12858683 372.88670575 -564.00837199 373.75601727 -564.9148173 374.65167157 C-567.06480182 376.5730107 -567.06480182 376.5730107 -566.84255168 378.80645673 C-567.42005168 379.05395673 -567.99755168 379.30145673 -568.59255168 379.55645673 C-571.17195147 380.98945661 -572.9037676 382.59070349 -574.84255168 384.80645673 C-574.84255168 385.46645673 -574.84255168 386.12645673 -574.84255168 386.80645673 C-575.50255168 386.80645673 -576.16255168 386.80645673 -576.84255168 386.80645673 C-578.30896922 388.25649916 -578.30896922 388.25649916 -579.84255168 390.18145673 C-583.6047718 394.63567082 -587.7031345 398.66329205 -591.90114543 402.70489423 C-594.06873954 404.57446182 -594.06873954 404.57446182 -593.84255168 406.80645673 C-594.39942668 407.03333173 -594.95630168 407.26020673 -595.53005168 407.49395673 C-598.50110353 409.1802294 -600.48777293 411.33681073 -602.84255168 413.80645673 C-605.34255168 416.30645673 -605.34255168 416.30645673 -607.84255168 418.80645673 C-608.57602824 419.54380048 -609.3095048 420.28114423 -610.06520793 421.04083173 C-612.09036996 423.05744877 -614.12795171 425.05457806 -616.18239543 427.04083173 C-627.11405062 437.67459706 -635.26215883 447.32409967 -637.84255168 462.80645673 C-637.84255168 533.09645673 -637.84255168 603.38645673 -637.84255168 675.80645673 C-486.70255168 676.13645673 -335.56255168 676.46645673 -179.84255168 676.80645673 C-179.84255168 734.55645673 -179.84255168 792.30645673 -179.84255168 851.80645673 C-178.52255168 852.13645673 -177.20255168 852.46645673 -175.84255168 852.80645673 C-173.15763275 850.52427564 -171.04035681 848.05371314 -168.84255168 845.30645673 C-166.67454648 842.59645022 -164.3259063 840.22924172 -161.84255168 837.80645673 C-161.01755168 836.98145673 -160.19255168 836.15645673 -159.34255168 835.30645673 C-151.84255168 827.80645673 -151.84255168 827.80645673 -149.46755168 825.49395673 C-146.6367966 822.59580272 -144.0121655 819.56750896 -141.39333293 816.47833173 C-139.84255168 814.80645673 -139.84255168 814.80645673 -137.84255168 813.80645673 C-137.84255168 813.14645673 -137.84255168 812.48645673 -137.84255168 811.80645673 C-137.18255168 811.80645673 -136.52255168 811.80645673 -135.84255168 811.80645673 C-134.37613413 810.35641429 -134.37613413 810.35641429 -132.84255168 808.43145673 C-127.66303981 802.34043656 -121.91719539 796.83521024 -116.22536418 791.22833173 C-111.77963726 786.82314335 -107.50923331 782.36377349 -103.43776652 777.61114423 C-100.53826016 774.33089461 -97.32991647 771.35575986 -94.1179423 768.38458173 C-87.96898653 762.45095903 -85.5325986 756.86980977 -85.34134623 748.34828107 C-85.30565501 745.29450658 -85.32132266 742.24238377 -85.34084269 739.18853681 C-85.33705586 737.50090507 -85.33155282 735.81327645 -85.32447001 734.12565534 C-85.31054881 729.55969016 -85.32166021 724.9941032 -85.33818123 720.42815916 C-85.35206272 715.64456216 -85.34556838 710.86098642 -85.34204814 706.07737653 C-85.33934925 698.04861294 -85.35279665 690.01999913 -85.37599894 681.99127118 C-85.40263383 672.71053651 -85.40434596 663.43005179 -85.39261058 654.14929198 C-85.38183222 645.21437545 -85.38801857 636.27954929 -85.40216586 627.34463994 C-85.40792242 623.54449943 -85.40784564 619.74442512 -85.40310046 615.94428365 C-85.39832845 611.47164591 -85.40844158 606.99928202 -85.43005511 602.52669637 C-85.43561909 600.88560329 -85.43609183 599.24448387 -85.43110224 597.60338895 C-85.42514517 595.36318262 -85.43766145 593.12381247 -85.45487162 590.88368146 C-85.45730152 589.63029383 -85.45973141 588.37690619 -85.46223494 587.08553712 C-85.89407799 583.36219831 -86.44869888 581.68514839 -88.84255168 578.80645673 C-91.52392859 578.29737692 -93.58466055 578.1420293 -96.27074668 578.19121758 C-97.03735312 578.18544836 -97.80395955 578.17967914 -98.59379649 578.17373509 C-101.18406078 578.16041231 -103.77279679 578.18300018 -106.3629832 578.20518414 C-108.22998584 578.20300541 -110.09698701 578.19863056 -111.96397999 578.19223831 C-117.11090746 578.18101637 -122.2573183 578.20111506 -127.4041799 578.22612862 C-132.9481465 578.24765472 -138.49208229 578.24041876 -144.0360789 578.23661725 C-153.64688955 578.23399128 -163.25753091 578.24972263 -172.86829898 578.27780644 C-186.76394937 578.31838484 -200.65951763 578.33145787 -214.55522085 578.3377464 C-237.09823269 578.34869848 -259.64114684 578.38195461 -282.18410441 578.42925946 C-304.08676901 578.47516772 -325.9894093 578.51050805 -347.89211222 578.53179852 C-349.26898836 578.53315173 -350.6458645 578.53450526 -352.02274063 578.53585909 C-362.68261256 578.54628666 -373.34248509 578.55604054 -384.00235781 578.56563191 C-436.2825053 578.6128285 -488.56242685 578.7134132 -540.84255168 578.80645673 C-540.84255168 505.87645673 -540.84255168 432.94645673 -540.84255168 357.80645673 C-542.49255168 357.14645673 -544.14255168 356.48645673 -545.84255168 355.80645673 Z " fill="#FDB911" transform="translate(771.842551677255,25.19354327232577)"/>
<path d="M0 0 C1.65804882 0.00056958 1.65804882 0.00056958 3.34959358 0.00115067 C4.61954062 -0.00084038 5.88948766 -0.00283143 7.19791794 -0.00488281 C8.62558715 -0.00202922 10.05325617 0.00091639 11.48092502 0.00394398 C12.9832156 0.00350841 14.4855061 0.00263377 15.98779619 0.00135481 C20.13571931 -0.00089295 24.28361687 0.00313496 28.43153673 0.00813287 C32.89713689 0.01243318 37.36273549 0.01099125 41.82833713 0.0102306 C49.5718512 0.0097051 57.31535687 0.01285464 65.05886883 0.01846844 C76.25482202 0.02657989 87.45077114 0.02919829 98.64672696 0.03045643 C116.80943375 0.03264751 134.97213607 0.03930911 153.13484043 0.04875904 C170.78295218 0.05793171 188.43106271 0.06501326 206.07917637 0.06926686 C207.16618003 0.06952958 208.2531837 0.0697923 209.37312687 0.07006299 C214.82605817 0.07136798 220.27898947 0.0726317 225.73192078 0.07387489 C271.0018914 0.08424925 316.27185654 0.10214342 361.54182285 0.1241985 C361.54182285 18.9341985 361.54182285 37.7441985 361.54182285 57.1241985 C241.42182285 57.1241985 121.30182285 57.1241985 -2.45817715 57.1241985 C-3.72949059 54.58157162 -3.58519275 52.80214049 -3.58757168 49.95598561 C-3.59072384 48.87824375 -3.593876 47.8005019 -3.59712368 46.69010121 C-3.59509945 45.52237675 -3.59307522 44.35465229 -3.59098965 43.15154225 C-3.59194638 41.95815739 -3.5929031 40.76477253 -3.59388882 39.5352245 C-3.59457025 37.00913652 -3.59271855 34.4830468 -3.58854824 31.95696217 C-3.58319482 28.07451689 -3.58849695 24.19218705 -3.5948959 20.30974537 C-3.5942352 17.86117741 -3.59295422 15.41260951 -3.59098965 12.96404225 C-3.59301388 11.79429356 -3.59503811 10.62454487 -3.59712368 9.41934925 C-3.59397152 8.34475956 -3.59081936 7.27016987 -3.58757168 6.16301686 C-3.58677609 5.21196568 -3.58598049 4.2609145 -3.58516079 3.28104359 C-3.40257268 0.17974438 -3.11690721 0.15748059 0 0 Z " fill="#FEB911" transform="translate(389.4581771492958,224.8758015036583)"/>
<path d="M0 0 C0 3 0 3 -1.19335938 4.53393555 C-1.73798828 5.062854 -2.28261719 5.59177246 -2.84375 6.13671875 C-3.72353516 7.00200195 -3.72353516 7.00200195 -4.62109375 7.88476562 C-5.24113281 8.47966797 -5.86117188 9.07457031 -6.5 9.6875 C-7.12003906 10.29400391 -7.74007813 10.90050781 -8.37890625 11.52539062 C-9.91264707 13.02373743 -11.45548198 14.51276493 -13 16 C-13.33 15.34 -13.66 14.68 -14 14 C-13.67 13.34 -13.34 12.68 -13 12 C-12.34 12 -11.68 12 -11 12 C-10.67 11.01 -10.34 10.02 -10 9 C-9.34 9 -8.68 9 -8 9 C-8 8.34 -8 7.68 -8 7 C-6.625 5.375 -6.625 5.375 -5 4 C-4.34 4 -3.68 4 -3 4 C-3 3.34 -3 2.68 -3 2 C-2.01 1.34 -1.02 0.68 0 0 Z " fill="#FBA907" transform="translate(315,104)"/>
</svg>
